<svg xmlns="http://www.w3.org/2000/svg" viewBox="0 0 1200 400" fill="none">
  <rect width="1200" height="400" fill="url(#g1)"/>
  <defs><linearGradient id="g1" x1="0" y1="0" x2="1" y2="1"><stop offset="0%" stop-color="#00A651"/><stop offset="100%" stop-color="#005C2E"/></linearGradient></defs>
  <!-- Decorative circles -->
  <circle cx="950" cy="200" r="180" fill="rgba(255,255,255,0.06)"/>
  <circle cx="1000" cy="150" r="120" fill="rgba(255,255,255,0.04)"/>
  <!-- Medicine bottle -->
  <rect x="880" y="80" width="100" height="170" rx="10" fill="white" opacity="0.9"/>
  <rect x="895" y="55" width="70" height="35" rx="6" fill="#E8F5E9"/>
  <rect x="895" y="55" width="70" height="14" rx="6" fill="#00A651" opacity="0.7"/>
  <rect x="900" y="110" width="60" height="8" rx="4" fill="#00A651" opacity="0.5"/>
  <rect x="905" y="128" width="50" height="5" rx="2" fill="#CBD5E1"/>
  <rect x="905" y="140" width="50" height="5" rx="2" fill="#CBD5E1"/>
  <rect x="905" y="152" width="35" height="5" rx="2" fill="#CBD5E1"/>
  <!-- Pills -->
  <g transform="translate(1030, 120) rotate(20)"><rect width="50" height="22" rx="11" fill="#FF6B35" opacity="0.9"/><rect width="25" height="22" rx="11" fill="#FFDAC8" opacity="0.9"/></g>
  <g transform="translate(1060, 250) rotate(-15)"><rect width="44" height="18" rx="9" fill="white" opacity="0.7"/><rect width="22" height="18" rx="9" fill="#E8F5E9" opacity="0.7"/></g>
  <g transform="translate(850, 290) rotate(10)"><rect width="40" height="16" rx="8" fill="white" opacity="0.6"/><rect width="20" height="16" rx="8" fill="#B8D4F0" opacity="0.6"/></g>
  <!-- Heartbeat line -->
  <polyline points="750,320 790,320 810,280 830,350 850,300 870,320 950,320" stroke="white" stroke-width="2" fill="none" opacity="0.2" stroke-linecap="round" stroke-linejoin="round"/>
</svg>
